<?xml version="1.0" encoding="UTF-8"?>
<svg id="Layer_1" data-name="Layer 1" xmlns="http://www.w3.org/2000/svg" xmlns:xlink="http://www.w3.org/1999/xlink" viewBox="0 0 1133.86 1133.86">
  <defs>
    <style>
      .cls-1 {
        fill: url(#linear-gradient-2);
      }

      .cls-2 {
        fill: url(#linear-gradient-4);
      }

      .cls-3 {
        fill: url(#linear-gradient-3);
      }

      .cls-4 {
        fill: url(#linear-gradient-5);
      }

      .cls-5 {
        fill: url(#linear-gradient-8);
      }

      .cls-6 {
        fill: url(#linear-gradient-7);
      }

      .cls-7 {
        fill: url(#linear-gradient-6);
      }

      .cls-8 {
        fill: url(#linear-gradient);
      }
    </style>
    <linearGradient id="linear-gradient" x1="721.44" y1="498.01" x2="790.45" y2="498.01" gradientUnits="userSpaceOnUse">
      <stop offset="0" stop-color="#196ee5"/>
      <stop offset=".33" stop-color="#1a70e5"/>
      <stop offset=".5" stop-color="#2078e6"/>
      <stop offset=".64" stop-color="#2a85e8"/>
      <stop offset=".76" stop-color="#3899eb"/>
      <stop offset=".87" stop-color="#4ab2ef"/>
      <stop offset=".96" stop-color="#60d0f3"/>
      <stop offset="1" stop-color="#6adef6"/>
    </linearGradient>
    <linearGradient id="linear-gradient-2" x1="443.96" y1="712.37" x2="774.59" y2="712.37" xlink:href="#linear-gradient"/>
    <linearGradient id="linear-gradient-3" x1="460.32" y1="550.83" x2="701.02" y2="550.83" xlink:href="#linear-gradient"/>
    <linearGradient id="linear-gradient-4" x1="316.02" y1="529.67" x2="678.14" y2="529.67" xlink:href="#linear-gradient"/>
    <linearGradient id="linear-gradient-5" x1="365.87" y1="627.24" x2="457.52" y2="627.24" xlink:href="#linear-gradient"/>
    <linearGradient id="linear-gradient-6" x1="425.51" y1="589.54" x2="511.42" y2="589.54" xlink:href="#linear-gradient"/>
    <linearGradient id="linear-gradient-7" x1="394.44" y1="547.13" x2="421.91" y2="547.13" xlink:href="#linear-gradient"/>
    <linearGradient id="linear-gradient-8" x1="438.01" y1="481.39" x2="565.23" y2="481.39" xlink:href="#linear-gradient"/>
  </defs>
  <path class="cls-8" d="M728.81,406.86l54.37,34.82c7.23,4.63,11.6,12.64,11.58,21.23l-.3,108.91c0,.75-.42,1.43-1.09,1.77l-30.77,15.69c-1.32.67-2.88-.28-2.89-1.76l-.59-109.62c-.05-8.96-4.86-17.21-12.63-21.67l-19.14-10.97c-.61-.35-.99-.99-1-1.69l-.6-34.99c-.03-1.59,1.72-2.56,3.06-1.71Z"/>
  <path class="cls-1" d="M791.17,608.46l-30.14,17.78c-.6.35-.97.99-.98,1.68l-.44,27.43c-.14,8.89-4.97,17.05-12.71,21.44l-168.75,95.92c-7.91,4.5-17.63,4.36-25.42-.34l-56.08-33.92c-.67-.4-1.51-.38-2.16.06l-29.04,19.97c-1.2.83-1.13,2.62.12,3.36l87.78,51.28c7.82,4.57,17.5,4.57,25.33.01l204.06-118.99c7.85-4.58,12.62-13.04,12.47-22.13l-1.05-61.87c-.03-1.52-1.69-2.45-3-1.68Z"/>
  <path class="cls-3" d="M712.92,492.43c-6.64-14.3-79.49-63.57-103.15-64.6-8.36-.36-24.02-2-41-2.08-1.48,0-2.68-1.18-2.7-2.66l-.2-13.78c-.01-.73-.68-1.27-1.39-1.13l-4.53.88c-.79.15-1.35.85-1.32,1.66l.38,12.16c.05,1.57-1.21,2.86-2.77,2.86-17.85,0-35.28.1-45.19.16-4.58.03-8.23,3.82-8.1,8.4l.55,18.97c.13,4.48,3.84,8.02,8.32,7.93,10.6-.22,29.97-.58,48.04-.71,2.28-.01,4.55-.03,6.77-.03,14.62-.07,27.47.06,32.76.58,15.49,1.53,60.48,30.44,62.98,42.89,1.9,9.41,2.59,78.63,2.71,93.04.01,1.66-.74,3.22-2.05,4.24l-15.68,12.23c-1.51,1.18-3.38,1.81-5.29,1.81l-68.97-.3c-.9,0-1.75-.43-2.28-1.17-3.82-5.38-9.58-10.39-16.18-11.12-10.48-1.16-18.96,9.15-17.75,19.94.93,8.34,7.76,15.97,16.16,15.74,7.07-.19,13.23-5.27,17.41-10.23.53-.62,1.3-.98,2.12-.99l74.19-.94c1.54-.02,3.04-.45,4.35-1.26l5.1-3.12c.93-.57,2.02.51,1.42,1.43-10.3,16.06-36.07,33.45-49.38,34.4-11.96.85-97.15.46-124.55.31-4.65-.03-8.41,3.78-8.34,8.43l.26,17.51c.07,4.46,3.63,8.06,8.09,8.18,28.33.71,123.13,2.86,135.27.04,14.3-3.32,22.21-9.45,55.15-29.36,22.26-13.46,32.16-28.32,36.24-36.54,1.68-3.39,2.6-7.09,2.7-10.88.59-21.69,6.51-108.59-.13-122.88Z"/>
  <path class="cls-2" d="M576.77,359.13l121.01,68.5c1.35.76,3.01-.24,2.97-1.78l-.9-34.19c-.02-.69-.39-1.32-.99-1.67l-119.48-69.3c-7.74-4.49-17.28-4.52-25.06-.09l-203.02,115.83c-7.84,4.47-12.67,12.8-12.67,21.82v214.63c0,8.89,4.7,17.12,12.35,21.64l80.01,47.22c.66.39,1.48.37,2.11-.06l28.48-18.99c1.22-.82,1.17-2.63-.1-3.37l-89.84-52.36v-3.9s-.06-14.29-.06-14.29l-.1-28.73c0-.34.26-.61.6-.65,3.21-.35,17.88-7.41,22.1-9.44,1.41-.68,2.05-1.43,2.27-2.49.51-2.56-1.61-4.51-4.73-3.98-2.48.41-11.71,2.92-19.64,5.14-.32.09-.63-.15-.63-.48l-.44-130.81c-.03-9.04,4.8-17.4,12.65-21.89l168.25-96.27c7.69-4.4,17.14-4.42,24.86-.06Z"/>
  <path class="cls-4" d="M449.77,591.42c-8.12-.38-14.81,6.09-14.81,14.11,0,5.02,2.62,9.43,6.56,11.93.43.27.47.89.09,1.23-4.77,4.32-13.96,7.55-20.63,11.52-8.62,5.14-49.39,18.58-49.39,18.58l.05,14.29c16.23-5.34,40.29-13.74,44.86-17.33,7.81-6.13,30.03-14.24,32.55-16.08,1.69-1.23,3.6-4.66,4.07-7.65.24-1.56,1.14-2.95,2.43-3.86,4.56-3.25,6.82-9.33,7.59-14.16,1.09-6.79-6.49-12.25-13.36-12.57Z"/>
  <path class="cls-7" d="M516.78,633.77l-.91-84.35c-.03-2.84-2.38-5.11-5.22-5.04l-51.23,1.19c-2.33.05-4.12-.93-6.18-2.58s-6.12-3.96-10.07-3.96c-7.53,0-13.21,5.85-12.18,13.61.59,4.47,4.81,9.28,9.17,10.43,6.61,1.75,11.69-2.37,15.33-7.96.48-.74,1.6-1.3,2.48-1.24,6.26.4,13.33.95,15.19,4.94,2.18,4.68,3.04,58.99,3.26,76.23.04,2.87,2.43,5.13,5.29,5.02l30.15-1.14c2.76-.1,4.93-2.39,4.9-5.15Z"/>
  <path class="cls-6" d="M423.39,502.56c1.78-7.82-6.93-14.43-15.13-13.54-6.08.66-11.09,5.47-11.96,11.53-.79,5.54,1.76,10.57,5.94,13.35,1.58,1.05,2.52,2.83,2.65,4.72,1.13,16.91,4.14,67.16.12,71.09-3.04,2.97-5.06,4.34-6,5.87-3.23,3.06-1.41,8.74.89,9.45,2.84.87,13.91.09,15.07-5.87.64-3.3.23-59.51.06-80.23-.01-1.72.63-3.38,1.81-4.63,2.91-3.09,5.57-7.43,6.55-11.74Z"/>
  <path class="cls-5" d="M556.27,487.37c-9.51-.66-17.22,6.85-20.95,14.23-18.04.4-54.38,1.16-59.34.78-4.4-.34-6.55-3.37-7.51-5.37-.43-.91-.67-1.89-.73-2.9l-1.75-28.52c-.07-1.07.4-2.09,1.22-2.78,3.65-3.05,6.17-7.78,6.9-11.84,1.48-8.21-7.25-15-15.79-14.03-6.43.73-12.57,5.89-12.38,12.36.18,6.19,4.16,11.75,8.52,14.4,1.05.64,1.68,1.78,1.7,3.01l.88,44.87c.02,1.12.94,2.02,2.06,2.01l76.79-.45c4.17,5.49,10.74,11.32,18.04,12.55,11.19,1.89,20.4-9.83,19.11-21.45-.97-8.76-7.98-16.28-16.78-16.89Z"/>
</svg>